PathFileType	4	(X/Y/Z)	S:\OneDrive - The University of Tokyo\ìåëÂéˆã∆\ÉoÉCÉÅÉJ\ë™íË\hirabayashi_2\Trimmed\Trimmed_BarR20kg1.trc
DataRate	CameraRate	NumFrames	NumMarkers	Units	OrigDataRate	OrigDataStartFrame	OrigNumFrames
200.00	200.00	       17	12	mm	200.00	79	       313
Frame#	Time	BarR0			BarR50			BarR100			BarR130			BarR180			BarR230			BarL0			BarL50			BarL100			BarL130			BarL180			BarL230			
		X1	Y1	Z1	X2	Y2	Z2	X3	Y3	Z3	X4	Y4	Z4	X5	Y5	Z5	X6	Y6	Z6	X7	Y7	Z7	X8	Y8	Z8	X9	Y9	Z9	X10	Y10	Z10	X11	Y11	Z11	X12	Y12	Z12	

79	0.390	-576.35327	2754.90894	1664.22791	-603.88049	2305.61768	1657.81628	-637.89789	1851.82703	1654.49341	-660.48041	1349.61316	1654.42786	-689.76599	902.97888	1658.45911	-713.75623	455.05902	1664.12561	-1113.52087	2808.14233	1664.65356	-1140.77600	2356.50684	1667.93750	-1171.26807	1906.02173	1668.93311	-1198.99512	1404.28015	1669.25427	-1226.82971	952.63275	1668.41040	-1244.68799	506.43692	1667.65686	
80	0.395	-576.35626	2754.90820	1664.23816	-603.89410	2305.63477	1657.83301	-637.91559	1851.78894	1654.50732	-660.48041	1349.59338	1654.43262	-689.78046	902.94867	1658.47534	-713.77148	455.04224	1664.11292	-1113.50940	2808.15674	1664.66248	-1140.76770	2356.48901	1667.94641	-1171.28137	1906.01465	1668.91663	-1198.99585	1404.27075	1669.26611	-1226.83032	952.64288	1668.42053	-1244.71021	506.45743	1667.64990	
81	0.400	-576.34467	2754.91187	1664.23779	-603.89380	2305.63232	1657.81665	-637.89478	1851.83142	1654.49988	-660.48889	1349.57874	1654.42810	-689.76276	902.97125	1658.47119	-713.76233	455.04361	1664.12366	-1113.50708	2808.13965	1664.66772	-1140.76440	2356.50098	1667.94788	-1171.28186	1906.04041	1668.91187	-1199.00525	1404.27783	1669.27478	-1226.29797	952.71124	1668.39185	-1244.69910	506.46304	1667.65833	
82	0.405	-576.34644	2754.90625	1664.22668	-603.89539	2305.63428	1657.82800	-637.89832	1851.80957	1654.50110	-660.49670	1349.59558	1654.42712	-689.77448	902.99274	1658.46716	-713.77435	455.05048	1664.11987	-1113.51184	2808.14014	1664.67004	-1140.77979	2356.50635	1667.95337	-1171.28137	1906.03723	1668.91797	-1199.00928	1404.29187	1669.26294	-1226.82788	952.62341	1668.41699	-1244.71399	506.44989	1667.65735	
83	0.410	-576.34888	2754.93628	1664.24146	-603.88104	2305.64087	1657.81641	-637.92603	1851.81616	1654.49365	-660.47552	1349.59998	1654.43005	-689.75470	902.96405	1658.46521	-713.77228	455.03503	1664.13037	-1113.50232	2808.13110	1664.67468	-1140.77966	2356.48706	1667.95691	-1171.27771	1906.04932	1668.92456	-1199.00916	1404.29492	1669.28064	-1226.81995	952.63385	1668.42224	-1244.70325	506.44901	1667.65625	
84	0.415	-576.35461	2754.91064	1664.23364	-603.88641	2305.65063	1657.81799	-637.89581	1851.80701	1654.50415	-660.49451	1349.62830	1654.42371	-689.75421	902.97955	1658.45520	-713.78534	455.04559	1664.12537	-1113.50793	2808.14795	1664.66162	-1140.76538	2356.50757	1667.94958	-1171.27039	1906.03174	1668.91858	-1198.99719	1404.28406	1669.26440	-1226.82385	952.62360	1668.39844	-1244.70288	506.45889	1667.65466	
85	0.420	-576.34216	2754.89893	1664.22449	-603.84558	2305.61792	1657.81909	-637.91382	1851.79919	1654.50183	-660.48535	1349.60254	1654.43604	-689.74506	902.98322	1658.46680	-713.77167	455.05600	1664.12195	-1113.49670	2808.14648	1664.66260	-1140.76367	2356.50122	1667.93896	-1171.27393	1906.02405	1668.91833	-1198.99133	1404.27112	1669.27979	-1226.82874	952.63654	1668.41028	-1244.70276	506.44962	1667.65735	
86	0.425	-576.34290	2754.89258	1664.23047	-603.88141	2305.63623	1657.84192	-637.91144	1851.82654	1654.50232	-660.48608	1349.61267	1654.42957	-689.74683	902.96533	1658.47192	-713.76678	455.03406	1664.12463	-1113.49438	2808.16113	1664.65112	-1140.76099	2356.48315	1667.93945	-1171.26270	1906.05090	1668.91150	-1198.99963	1404.28491	1669.25781	-1226.81104	952.64282	1668.42517	-1244.69482	506.45691	1667.66199	
87	0.430	-576.35028	2754.92041	1664.24121	-603.87970	2305.62012	1657.81128	-637.92682	1851.81226	1654.48669	-660.48419	1349.59827	1654.42664	-689.76941	902.98828	1658.46960	-713.77454	455.05621	1664.12390	-1113.50977	2808.16016	1664.66943	-1140.77490	2356.50732	1667.96252	-1171.27515	1906.03577	1668.92529	-1198.99744	1404.27148	1669.26025	-1226.82971	952.63159	1668.41675	-1244.70374	506.47037	1667.65161	
88	0.435	-576.34479	2754.89404	1664.24536	-603.89886	2305.64819	1657.81750	-637.88287	1851.79370	1654.48950	-660.47595	1349.62549	1654.43835	-689.76208	902.97913	1658.46875	-713.77625	455.03583	1664.11902	-1113.50256	2808.18433	1664.66125	-1140.77039	2356.48438	1667.93396	-1171.25854	1906.01514	1668.91846	-1199.00574	1404.25671	1669.25818	-1226.83630	952.63721	1668.41565	-1244.70142	506.46317	1667.66235	
89	0.440	-576.33929	2754.89673	1664.22437	-603.87909	2305.63843	1657.82568	-637.90845	1851.79980	1654.49365	-660.46985	1349.61523	1654.42798	-689.78156	902.96973	1658.46521	-713.75891	455.02676	1664.11707	-1113.51074	2808.15918	1664.67249	-1140.76978	2356.50635	1667.96094	-1171.28198	1906.00842	1668.92456	-1198.98755	1404.26892	1669.25830	-1226.83740	952.63428	1668.41272	-1244.69690	506.43253	1667.65503	
90	0.445	-576.35986	2754.89404	1664.21826	-603.88953	2305.60718	1657.82898	-637.90118	1851.82495	1654.49365	-660.47375	1349.59302	1654.43372	-689.76508	902.97369	1658.45435	-713.77435	455.02869	1664.11719	-1113.50562	2808.14722	1664.66150	-1140.75891	2356.48950	1667.95593	-1171.27515	1906.01367	1668.91626	-1198.98608	1404.28748	1669.25195	-1226.82324	952.63190	1668.41467	-1244.71008	506.45737	1667.65454	
91	0.450	-576.34949	2754.90234	1664.23804	-603.88232	2305.63354	1657.82202	-637.94135	1851.83154	1654.49316	-660.49280	1349.60449	1654.41663	-689.76514	902.98505	1658.46582	-713.76843	455.03433	1664.12451	-1113.50073	2808.13818	1664.64795	-1140.77612	2356.50488	1667.95288	-1171.26917	1906.02686	1668.91846	-1198.99939	1404.25708	1669.26660	-1226.83154	952.63611	1668.41174	-1244.71130	506.44525	1667.67151	
92	0.455	-576.34943	2754.93066	1664.22180	-603.89746	2305.60840	1657.82141	-637.89105	1851.79114	1654.49951	-660.50885	1349.58557	1654.42383	-689.76495	902.98486	1658.46533	-713.76904	455.04581	1664.12256	-1113.47961	2808.15869	1664.66711	-1140.76343	2356.52808	1667.94434	-1171.28113	1906.02185	1668.92993	-1198.97412	1404.23438	1669.26062	-1226.81860	952.63843	1668.42480	-1244.70129	506.44510	1667.65796	
93	0.460	-576.35278	2754.90479	1664.23718	-603.90216	2305.63892	1657.81677	-637.89014	1851.82288	1654.51025	-660.50543	1349.60107	1654.42981	-689.74768	902.97089	1658.47449	-713.77313	455.03552	1664.11829	-1113.49902	2808.12866	1664.66296	-1140.77063	2356.51904	1667.95593	-1171.25916	1906.03772	1668.92859	-1198.99622	1404.26660	1669.25610	-1226.83923	952.62280	1668.40137	-1244.70007	506.45758	1667.66760	
94	0.465	-576.34363	2754.90308	1664.22888	-603.91650	2305.62329	1657.84875	-637.91797	1851.82800	1654.48865	-660.49689	1349.59424	1654.43298	-689.77502	902.97333	1658.45813	-713.78229	455.03311	1664.11975	-1113.47473	2808.17749	1664.65063	-1140.77124	2356.51123	1667.95520	-1171.26416	1906.04565	1668.92310	-1199.00146	1404.28442	1669.25391	-1226.84009	952.63971	1668.41064	-1244.70862	506.47650	1667.65637	
95	0.470	-576.34619	2754.90161	1664.23181	-603.90375	2305.64551	1657.81458	-637.88373	1851.81250	1654.50806	-660.47986	1349.60205	1654.43030	-689.76849	902.96222	1658.46863	-713.77667	455.03973	1664.10889	-1113.47852	2808.15601	1664.65039	-1140.77368	2356.50659	1667.95081	-1171.27173	1906.03271	1668.92590	-1199.00342	1404.28918	1669.26501	-1226.58655	952.68396	1668.38452	-1244.69885	506.44739	1667.65820	
